<?xml version="1.0" encoding="UTF-8" standalone="no"?><!DOCTYPE svg PUBLIC "-//W3C//DTD SVG 1.1//EN" "http://www.w3.org/Graphics/SVG/1.1/DTD/svg11.dtd"><svg width="100%" height="100%" viewBox="0 0 2048 2048" version="1.1" xmlns="http://www.w3.org/2000/svg" xmlns:xlink="http://www.w3.org/1999/xlink" xml:space="preserve" xmlns:serif="http://www.serif.com/" style="fill-rule:evenodd;clip-rule:evenodd;stroke-linejoin:round;stroke-miterlimit:2;"><g id="Layer_x0020_1"><path d="M2020.04,917.971l-0,1010.67c-0,16.866 -14.272,29.84 -29.84,29.84l-1931.82,-0c-16.866,-0 -29.84,-14.272 -29.84,-29.84l-0,-1010.67l944.501,-655.183c28.543,-19.46 77.844,-18.163 107.684,2.595l941.906,652.588l-2.594,0Z" style="fill:#9c0000;"/><rect x="193.312" y="453.505" width="1660.66" height="1087.21" style="fill:#e8e8d0;"/><path d="M1139.11,1263.08c-38.921,45.408 -93.412,76.546 -154.389,76.546l-12.974,-0c-55.788,-3.893 -102.494,-33.733 -134.929,-79.141c-31.137,-42.814 -46.706,-94.71 -49.301,-146.606l0,-19.46c0,-7.785 0,-15.569 1.298,-23.353c5.189,-66.167 28.542,-132.334 71.356,-182.933c40.219,-46.706 94.71,-80.438 158.282,-80.438l12.974,-0c48.003,3.892 90.817,27.245 121.955,62.275l3.892,-62.275l75.249,3.892l-24.651,400.894c-1.297,20.759 6.487,38.922 23.353,50.599c9.082,6.486 19.461,7.784 29.84,7.784c60.978,-2.595 110.279,-54.491 133.632,-107.684c25.947,-57.085 33.732,-134.928 18.163,-194.608l0,-2.595c-18.163,-66.167 -53.193,-127.145 -102.494,-176.445c-73.951,-73.952 -173.85,-115.468 -280.236,-115.468c-105.089,-0 -204.988,41.516 -280.237,115.468c-73.951,73.951 -115.468,173.85 -115.468,280.236c0,105.089 41.517,204.988 115.468,280.237c73.951,73.951 173.85,115.468 280.237,115.468c84.33,-0 166.066,-25.948 233.53,-76.546l29.84,-22.056l0,93.412l-9.082,5.19c-76.546,49.301 -164.768,75.248 -255.586,75.248c-125.847,0 -243.91,-49.3 -333.43,-137.523c-88.222,-88.223 -137.523,-207.583 -137.523,-333.43c-0,-125.847 49.301,-243.91 137.523,-333.43c88.223,-88.222 207.583,-137.523 333.43,-137.523c125.847,-0 243.91,49.301 333.43,137.523c58.382,58.383 99.899,131.037 121.955,210.178l-0,1.297c16.866,76.546 11.676,168.661 -20.759,240.018c-36.327,80.438 -108.981,153.092 -202.393,156.984c-27.245,1.298 -53.193,-5.189 -75.248,-20.758c-23.354,-15.569 -37.625,-38.922 -46.707,-63.572l0,2.595Zm-276.344,-162.174c1.297,40.219 11.677,81.735 35.03,114.17c19.46,25.948 46.706,45.409 80.438,48.004l6.487,-0c40.219,-0 75.249,-23.354 99.899,-53.194c32.435,-38.921 50.598,-89.52 54.49,-140.118l0,-24.65c-1.297,-40.219 -11.676,-81.736 -35.029,-114.171c-19.461,-25.948 -46.706,-45.408 -80.438,-48.003l-6.487,-0c-40.22,-0 -75.249,23.353 -99.9,53.193c-32.434,38.922 -50.598,89.52 -54.49,140.118l-0,24.651Z" style="fill:#37474f;"/><path d="M32.435,1944.21l788.814,-539.715l-794.003,-486.522l-0,1009.37c-0,6.487 1.297,11.677 5.189,15.569l0,1.297Z" style="fill:#bf0000;"/><path d="M2020.04,1928.64l-0,-1010.67l-1.298,0l-799.193,490.414l795.301,535.823c2.595,-5.189 5.19,-10.379 5.19,-15.568Z" style="fill:#bf0000;"/><path d="M2016.15,1944.21c-5.189,9.082 -15.568,14.272 -25.947,14.272l-1931.82,-0c-10.379,-0 -20.758,-5.19 -25.948,-14.272l939.312,-652.588c28.543,-19.461 76.546,-18.163 107.683,2.595l936.717,649.993Z" style="fill:#d50000;"/><rect x="-315.266" y="-293.793" width="2657.06" height="2657.06" style="fill:none;"/></g></svg>