<?xml version="1.0" encoding="UTF-8" standalone="no"?><!DOCTYPE svg PUBLIC "-//W3C//DTD SVG 1.1//EN" "http://www.w3.org/Graphics/SVG/1.1/DTD/svg11.dtd"><svg width="100%" height="100%" viewBox="0 0 54 54" version="1.1" xmlns="http://www.w3.org/2000/svg" xmlns:xlink="http://www.w3.org/1999/xlink" xml:space="preserve" xmlns:serif="http://www.serif.com/" style="fill-rule:evenodd;clip-rule:evenodd;"><rect id="_7fb48d028a00BASE" serif:id="7fb48d028a00BASE" x="5" y="4.5" width="15" height="15" style="fill:#00fc04;stroke:#000;stroke-width:1px;"/><circle id="_7fb48d028a00BUT" serif:id="7fb48d028a00BUT" cx="12.5" cy="12" r="6.5" style="fill:#00fc04;stroke:#000;stroke-width:1px;"/><path id="_.x7fb48cd26890.t7fb48cc1a7d0R-obj" serif:id=".x7fb48cd26890.t7fb48cc1a7d0R obj" d="M5,24.5l44,0l0,25l-44,0l0,-25" style="fill:#fff;fill-rule:nonzero;stroke:#000;stroke-width:1px;"/><rect id="_.x7fb48cd26890.t7fb48cc1a7d0i0-inlet" serif:id=".x7fb48cd26890.t7fb48cc1a7d0i0 inlet" x="5" y="24.5" width="7" height="2" style="stroke:#000;stroke-width:1px;"/><rect id="_.x7fb48cd26890.t7fb48cc1a7d0i1-inlet" serif:id=".x7fb48cd26890.t7fb48cc1a7d0i1 inlet" x="42" y="24.5" width="7" height="2" style="stroke:#000;stroke-width:1px;"/><g id="_.x7fb48cd26890.t7fb48cc1a7d0-obj-text" serif:id=".x7fb48cd26890.t7fb48cc1a7d0 obj text"><path d="M8.455,44.456l0,-14.316l4.639,-0c1.758,-0 2.903,0.071 3.437,0.214c0.821,0.215 1.507,0.682 2.061,1.402c0.553,0.719 0.83,1.649 0.83,2.788c-0,0.879 -0.16,1.618 -0.479,2.217c-0.319,0.599 -0.724,1.069 -1.215,1.411c-0.492,0.342 -0.992,0.568 -1.499,0.679c-0.691,0.136 -1.69,0.205 -2.999,0.205l-1.884,-0l-0,5.4l-2.891,0Zm2.891,-11.894l-0,4.062l1.582,0c1.139,0 1.901,-0.075 2.285,-0.225c0.384,-0.149 0.685,-0.384 0.903,-0.703c0.218,-0.319 0.327,-0.69 0.327,-1.113c0,-0.521 -0.153,-0.951 -0.459,-1.289c-0.306,-0.339 -0.693,-0.55 -1.162,-0.635c-0.345,-0.065 -1.038,-0.097 -2.08,-0.097l-1.396,-0Z" style="fill-rule:nonzero;"/><path d="M31.487,44.456l-2.549,0l0,-1.523c-0.423,0.592 -0.923,1.033 -1.499,1.323c-0.576,0.29 -1.157,0.434 -1.743,0.434c-1.191,0 -2.212,-0.48 -3.061,-1.44c-0.85,-0.96 -1.275,-2.3 -1.275,-4.019c0,-1.757 0.414,-3.094 1.24,-4.008c0.827,-0.915 1.872,-1.372 3.135,-1.372c1.159,-0 2.162,0.481 3.008,1.445l-0,-5.156l2.744,-0l0,14.316Zm-7.324,-5.41c-0,1.107 0.153,1.907 0.459,2.402c0.443,0.716 1.061,1.074 1.855,1.074c0.632,0 1.169,-0.268 1.612,-0.805c0.442,-0.537 0.664,-1.34 0.664,-2.407c-0,-1.192 -0.215,-2.05 -0.645,-2.574c-0.429,-0.524 -0.98,-0.786 -1.65,-0.786c-0.651,0 -1.196,0.259 -1.636,0.777c-0.439,0.517 -0.659,1.29 -0.659,2.319Z" style="fill-rule:nonzero;"/></g><path id="l7fb48cc19700-cord" serif:id="l7fb48cc19700 cord" d="M8,19.5l0,5" style="fill:none;fill-rule:nonzero;stroke:#000;stroke-width:1px;stroke-linejoin:round;"/><rect id="rect4160" x="4.999" y="47.413" width="6.981" height="2.001" style="stroke:#000;stroke-width:1px;"/></svg>