<?xml version="1.0" encoding="UTF-8" standalone="no"?><!DOCTYPE svg PUBLIC "-//W3C//DTD SVG 1.1//EN" "http://www.w3.org/Graphics/SVG/1.1/DTD/svg11.dtd"><svg width="100%" height="100%" viewBox="0 0 246 246" version="1.1" xmlns="http://www.w3.org/2000/svg" xmlns:xlink="http://www.w3.org/1999/xlink" xml:space="preserve" xmlns:serif="http://www.serif.com/" style="fill-rule:evenodd;clip-rule:evenodd;stroke-linecap:square;stroke-linejoin:round;stroke-miterlimit:1.5;"><g><path d="M42.732,11.46l36.442,58.116" style="fill:none;"/><path d="M76.743,44.449l2.431,25.127l-21.56,-13.132l19.129,-11.995Z" style="fill:#f00;"/><path d="M42.732,11.46c-0,0 16.049,25.594 26.846,42.812" style="fill:none;stroke:#f00;stroke-width:7.53px;"/></g><g><path d="M18.537,233.613l39.576,-56.028" style="fill:none;"/><path d="M35.865,189.514l22.248,-11.929l-3.806,24.956l-18.442,-13.027Z" style="fill:#f00;"/><path d="M18.537,233.613c-0,0 17.429,-24.674 29.155,-41.274" style="fill:none;stroke:#f00;stroke-width:7.53px;"/></g><g><path d="M151.964,229.635l-17.759,-48.072" style="fill:none;"/><path d="M131.44,206.655l2.765,-25.092l18.414,17.268l-21.179,7.824Z" style="fill:#f00;"/><path d="M151.964,229.635c0,0 -6.386,-17.287 -11.5,-31.128" style="fill:none;stroke:#f00;stroke-width:7.53px;"/></g><g><path d="M236.52,176.172l-56.618,-29.568" style="fill:none;"/><path d="M194.69,167.063l-14.788,-20.459l25.24,0.445l-10.452,20.014Z" style="fill:#f00;"/><path d="M236.52,176.172c-0,-0 -23.865,-12.463 -40.607,-21.206" style="fill:none;stroke:#f00;stroke-width:7.53px;"/></g><g><path d="M8.468,114.617l42.283,8.263" style="fill:none;"/><path d="M30.756,107.47l19.995,15.41l-24.325,6.749l4.33,-22.159Z" style="fill:#f00;"/><path d="M8.468,114.617c-0,0 12.979,2.536 24.555,4.799" style="fill:none;stroke:#f00;stroke-width:7.53px;"/></g><g><path d="M193.569,14.743l-27.334,53.832" style="fill:none;"/><path d="M186.524,53.554l-20.289,15.021l0.156,-25.243l20.133,10.222Z" style="fill:#f00;"/><path d="M193.569,14.743c0,0 -11.103,21.866 -19.156,37.727" style="fill:none;stroke:#f00;stroke-width:7.53px;"/></g></svg>