<?xml version="1.0" encoding="UTF-8" standalone="no"?><!DOCTYPE svg PUBLIC "-//W3C//DTD SVG 1.1//EN" "http://www.w3.org/Graphics/SVG/1.1/DTD/svg11.dtd"><svg width="100%" height="100%" viewBox="0 0 246 246" version="1.1" xmlns="http://www.w3.org/2000/svg" xmlns:xlink="http://www.w3.org/1999/xlink" xml:space="preserve" xmlns:serif="http://www.serif.com/" style="fill-rule:evenodd;clip-rule:evenodd;stroke-linecap:round;stroke-linejoin:round;stroke-miterlimit:1.5;"><g><path d="M209.359,182.715l0,-7.05c21.472,-0 30.928,-22.516 30.928,-39.801c-0,-46.851 -27.579,-53.901 -59.885,-53.901l-39.793,-0c-11.425,-0 -17.729,7.277 -17.729,20.468l0,118.265c0,13.191 6.304,20.469 17.729,20.469l9.85,0c11.425,0 17.729,-7.278 17.729,-20.469l0,-28.201l18.714,-0l9.456,32.067c3.349,11.145 9.849,16.603 20.093,16.603l9.062,0c13.001,0 18.517,-9.325 14.183,-23.425l-6.698,-21.379c-1.97,-6.368 -8.864,-10.917 -23.639,-13.646Zm-41.171,-33.433l0,-24.335c0,-2.956 1.379,-4.548 3.94,-4.548l4.334,-0c13.592,-0 18.517,5.685 18.517,16.602c-0,10.007 -4.137,16.83 -18.911,16.83l-3.94,0c-2.561,0 -3.94,-1.592 -3.94,-4.549Z" style="fill:#ffc200;fill-rule:nonzero;"/></g><path d="M122.88,23.785l0,197.486" style="fill:none;stroke:#7300ff;stroke-width:15px;"/><g><path d="M72.106,4.233l-18.073,0c-9.397,0 -15.542,5.395 -18.434,16.632l-31.085,117.774c-3.615,13.935 1.626,22.925 13.374,22.925l4.518,-0c9.579,-0 15,-5.394 17.531,-17.082l0.361,-1.348c0.542,-2.697 2.169,-3.821 4.157,-3.821l39.941,-0c1.988,-0 3.434,1.349 3.976,3.821l0.361,1.798c2.892,11.463 8.856,16.632 18.435,16.632l3.253,-0c10.482,-0 14.819,-8.99 11.205,-22.925l-31.085,-117.774c-2.892,-11.237 -9.037,-16.632 -18.435,-16.632Zm-20.964,91.926l7.771,-31.69c1.988,-9.216 1.446,-14.61 1.627,-22.027l5.602,0c0.181,7.642 -0.361,12.811 1.808,22.027l8.675,31.69c0.722,2.922 -0.543,4.945 -3.073,4.945l-19.338,0c-2.53,0 -3.795,-2.023 -3.072,-4.945Z" style="fill:#ffc200;fill-rule:nonzero;"/></g></svg>