<?xml version="1.0" encoding="UTF-8" standalone="no"?><!DOCTYPE svg PUBLIC "-//W3C//DTD SVG 1.1//EN" "http://www.w3.org/Graphics/SVG/1.1/DTD/svg11.dtd"><svg width="100%" height="100%" viewBox="0 0 246 246" version="1.1" xmlns="http://www.w3.org/2000/svg" xmlns:xlink="http://www.w3.org/1999/xlink" xml:space="preserve" xmlns:serif="http://www.serif.com/" style="fill-rule:evenodd;clip-rule:evenodd;stroke-linecap:round;stroke-linejoin:round;stroke-miterlimit:1.5;"><path d="M24.688,72.829c0,-0 -6.293,68.333 27.573,86.615c33.867,18.282 43.458,40.76 44.957,55.746l109.106,-30.651c-0,0 -17.025,-51.925 -55.987,-61.659c-38.337,-9.578 -27.457,-73.538 -27.457,-73.538l-98.192,23.487Z" style="fill:#ecf1a6;stroke:#000;stroke-width:7.5px;"/><g><path d="M112.756,101.992c0.756,-2.034 4.684,-2.79 4.684,-2.79" style="fill:none;stroke:#000;stroke-width:2px;"/><path d="M86.619,107.512c0,-0 1.964,-6.799 -0.755,-7.554c-2.72,-0.756 12.691,-5.59 15.41,-2.418" style="fill:none;stroke:#000;stroke-width:2px;"/><path d="M52.888,105.85c10.465,2.115 11.598,8.158 11.598,8.158l9.442,-2.87" style="fill:none;stroke:#000;stroke-width:2px;"/><path d="M40.841,120.807l-0.906,-9.669c-0,-0 15.108,16.014 12.691,7.856" style="fill:none;stroke:#000;stroke-width:2px;"/><path d="M101.274,73.518c5.439,3.626 11.482,11.18 11.482,11.18" style="fill:none;stroke:#000;stroke-width:2px;"/><path d="M38.122,91.95c2.871,-6.798 10.122,3.777 10.122,3.777l6.195,-11.029l7.554,7.252l7.252,-9.367c-0,0 9.518,-4.532 11.633,0.605c2.115,5.136 8.914,5.59 9.972,3.021" style="fill:none;stroke:#000;stroke-width:2px;"/><path d="M51,140.968c2.952,-6.844 7.918,-6.173 7.918,-6.173" style="fill:none;stroke:#000;stroke-width:2px;"/><path d="M70.325,135.466c2.068,-4.135 2.268,-4.031 2.282,-4.429c0.017,-0.501 0.174,-5.059 -1.298,-6.129c-0.591,-0.685 -0.589,-0.593 -1.118,-1.387" style="fill:none;stroke:#000;stroke-width:2px;"/><path d="M81.733,124.729c4.164,1.25 6.442,3.662 6.442,-0.671c-0,-0.412 4.932,4.127 5.368,1.074" style="fill:none;stroke:#000;stroke-width:2px;"/><path d="M103.877,117.75c2.876,1.598 4.831,4.293 5.368,2.148c0.521,-2.087 2.937,-1.008 2.684,-4.295c-0.004,-0.045 0.019,0.249 0.402,0.403c4.499,1.799 5.627,1.124 6.577,-3.624" style="fill:none;stroke:#000;stroke-width:2px;"/><path d="M73.68,158.28c5.069,-10.597 5.434,-10.905 6.308,-10.468c2.233,1.117 4.531,1.009 4.831,1.611c0.604,1.208 1.034,0.347 1.074,0.268" style="fill:none;stroke:#000;stroke-width:2px;"/><path d="M98.24,141.371c2.767,-0.103 3.963,1.315 4.429,-1.477c0.472,-2.831 -3.095,-3.544 -3.49,-3.623c2.716,0.194 8.218,2.22 9.663,-0.671c1.603,-3.206 5.01,-1.969 5.1,-1.879c0.684,0.684 -0.395,3.027 -0.671,5.234c6.894,-8.617 6.136,-11.136 11.81,-11.542" style="fill:none;stroke:#000;stroke-width:2px;"/><path d="M90.322,167.004c0.668,-0.585 0.572,-0.668 7.918,-7.784c0.863,1.727 6.47,5.883 11.944,3.892" style="fill:none;stroke:#000;stroke-width:2px;"/><path d="M121.055,154.12c0.656,-3.61 2.218,-2.616 4.294,-5.637c2.423,-3.524 2.271,-3.661 5.234,-5.636c1.449,-0.966 1.738,0.812 2.148,0.402" style="fill:none;stroke:#000;stroke-width:2px;"/></g><path d="M135.803,138.063l83.397,-115.795c-32.62,50.585 17.732,56.538 -1.335,62.707c-19.066,6.169 -21.87,4.486 -21.87,4.486c-0,0 -9.119,10.297 3.738,16.389c-27.416,2.481 -32.933,-9.456 -43.667,4.079" style="fill:#fff;stroke:#000;stroke-width:7.5px;"/></svg>