<?xml version="1.0" encoding="UTF-8" standalone="no"?><!DOCTYPE svg PUBLIC "-//W3C//DTD SVG 1.1//EN" "http://www.w3.org/Graphics/SVG/1.1/DTD/svg11.dtd"><svg width="100%" height="100%" viewBox="0 0 246 246" version="1.1" xmlns="http://www.w3.org/2000/svg" xmlns:xlink="http://www.w3.org/1999/xlink" xml:space="preserve" xmlns:serif="http://www.serif.com/" style="fill-rule:evenodd;clip-rule:evenodd;stroke-linejoin:round;stroke-miterlimit:2;"><g><path d="M119.356,70.094c0,0 24.162,-14.62 56.044,-16.533c10.877,-0.652 28.678,1.958 42.638,13.923c-0,-0 -24.8,32.848 -16.316,69.178l31.326,5.438c0,0 1.088,35.024 3.698,37.634c0,0 -51.784,-5.292 -68.525,0c-20.622,6.519 -31.543,16.233 -31.543,16.233l-17.322,-125.873Z" style="fill:#de6aff;"/><path d="M119.356,70.094c0,0 24.162,-14.62 56.044,-16.533c10.877,-0.652 28.678,1.958 42.638,13.923c-0,-0 -24.8,32.848 -16.316,69.178l31.326,5.438c0,0 1.088,35.024 3.698,37.634c0,0 -51.784,-5.292 -68.525,0c-20.622,6.519 -31.543,16.233 -31.543,16.233l-17.322,-125.873Zm4.03,1.873l15.633,118.429c5.117,-3.513 14.664,-9.139 28.342,-13.387c3.181,-0.988 13.232,-3.646 47.066,-1.599c1.272,0.077 9.36,0.562 18.764,1.454c-0.462,-2.442 -0.933,-6.283 -1.387,-12.488c-0.571,-7.806 -0.891,-16.416 -1.019,-20.32l-30.857,-5.497c-0.88,-3.838 -4.029,-16.084 -0.294,-33.9c3.842,-18.326 12.809,-32.434 15.861,-36.852c-3.679,-2.983 -13.329,-9.883 -28.768,-11.985c-6.919,-0.942 -11.717,-0.496 -14.863,-0.196c-5.156,0.493 -9.335,1.3 -12.429,1.972c-4.176,0.907 -6.379,1.581 -6.97,1.753c-6.115,1.782 -11.153,3.721 -14.653,5.182c-0.059,0.025 -3.544,1.518 -7.822,3.737c-2.859,1.482 -5.107,2.785 -6.604,3.697Zm-2.089,1.335l-0.008,0.006c-0.003,0.002 0.011,-0.003 0.008,-0.005l-0,-0.001Z"/><path d="M112.558,67.008l11.956,-1.98l13.324,128.208l-9.517,0.99l-15.763,-127.218Z" style="fill:#ffc303;"/><path d="M108.404,63.978l19.723,-3.687l6.97,78.759c2.077,23.111 3.249,35.227 3.546,38.289c0.58,6.002 1.208,12 1.789,18.002l-14.189,1.498c-1.351,-10.295 -2.649,-20.597 -4,-30.892c-1.005,-7.661 -2.039,-15.318 -3.069,-22.975l-10.77,-78.994Zm4.154,3.03l15.763,127.218l9.517,-0.99l-13.324,-128.208l-11.956,1.98Z"/><path d="M47.015,60.507l-4.35,-26.649l41.146,-2.082l1.818,23.836l-38.614,4.895Z" style="fill:#ffc303;"/><path d="M47.015,60.507l-4.35,-26.649l41.146,-2.082l1.818,23.836l-38.614,4.895Zm3.041,-3.976c0.691,-0.05 1.381,-0.1 2.071,-0.154c4.702,-0.368 9.405,-0.728 14.104,-1.132c5.684,-0.49 11.362,-1.061 17.047,-1.55c-0.155,-3.013 -0.275,-6.028 -0.43,-9.041c-0.066,-1.28 -0.142,-2.559 -0.233,-3.838c-0.167,-2.356 -0.376,-4.709 -0.543,-7.065c-4.855,0.326 -9.714,0.593 -14.57,0.919c-3.406,0.228 -6.813,0.455 -10.214,0.742c-3.723,0.315 -7.439,0.701 -11.159,1.048l3.927,20.071Z"/><path d="M9.014,56.156l20.734,160.096l105.371,-11.556l-15.763,-163.496l-110.342,14.956Z" style="fill:#ffc303;"/><path d="M9.014,56.156l110.342,-14.956l15.763,163.496l-105.371,11.556l-20.734,-160.096Zm2.724,2.139l11.14,91.208c1.04,8.351 2.077,16.703 3.14,25.052c1.695,13.306 3.439,26.606 5.134,39.913l101.442,-11.826l-16.514,-157.307c-7.905,1.048 -15.799,2.181 -23.705,3.228c-5.112,0.678 -10.229,1.316 -15.347,1.947c-10.525,1.298 -21.051,2.584 -31.581,3.84c-11.234,1.339 -22.474,2.614 -33.709,3.945Z"/></g><path d="M140.145,75.007c1.033,-0.074 2.598,1.836 4.355,8.041l0.011,-11.104l0.105,11.52l-0.117,0l0,-0.001c0,0 -0,0 -0,0c-0,0 0,0.001 0,0.001c-3.179,0 -5.76,-2.581 -5.76,-5.76c0,-1.44 0.53,-2.758 1.406,-2.697Z"/><path d="M171.176,68.895l0.083,0.048l1.498,1.984l0.743,2.179l-0.016,1.801l-0.445,1.453l-0.769,1.239l-1.057,1.006l-1.335,0.733l-2.141,0.388l-1.402,-0.187l-1.201,-0.463l-1.611,-1.233c-0.094,-0.101 -0.278,-0.34 -0.508,-0.644l-0.416,-0.323c-0.823,-0.823 -1.345,-1.834 -1.565,-2.896c-0.656,-2.208 0.058,-4.692 1.985,-6.191c2.509,-1.951 6.131,-1.499 8.083,1.011c0.024,0.03 0.048,0.062 0.074,0.095Zm-7.694,8.667c0.588,0.572 1.186,0.766 1.794,0.982l-1.279,-0.582l-0.515,-0.4Z"/><path d="M188.254,67.54c2.597,-1.453 5.922,-0.684 7.601,1.834l1.257,2.863c0.748,2.431 -0.187,5.064 -2.3,6.48c-2.113,1.415 -4.904,1.277 -6.867,-0.34l-1.425,-1.391l-1.077,-1.607c-1.421,-2.844 -0.267,-6.306 2.576,-7.728c0.078,-0.039 0.156,-0.076 0.235,-0.111Z"/><path d="M147.269,166.096c0.06,-0.982 0.372,-1.961 0.957,-2.838c0.273,-0.411 0.601,-0.789 0.979,-1.123c0.379,-0.335 0.795,-0.613 1.237,-0.833c0.942,-0.472 1.953,-0.66 2.934,-0.597c0.873,0.053 1.744,0.306 2.543,0.772l0.614,0.271l1.054,0.811l0.773,0.92l0.658,1.294l0.344,1.906l-0.207,1.607l-0.589,1.406l-1.008,1.301l-1.478,1.075l-1.938,0.595l-1.481,-0.006l-1.639,-0.465l-1.891,-1.338l-0.329,-0.475c-0.38,-0.408 -0.693,-0.863 -0.936,-1.35c-0.471,-0.942 -0.659,-1.952 -0.597,-2.933Zm3.023,5.369c0.395,0.259 0.859,0.485 1.405,0.658l-1.405,-0.658Z"/><path d="M177.062,154.997c1.74,0.519 3.209,1.849 3.827,3.701l0.098,0.488c0.039,0.102 0.096,0.252 0.181,0.478c1.062,2.831 -0.247,6.002 -2.997,7.26c-2.75,1.258 -6.005,0.175 -7.453,-2.48l-0.7,-1.283c-1.523,-2.791 -0.493,-6.293 2.298,-7.815c1.516,-0.827 3.242,-0.901 4.746,-0.349Zm4.105,5.322l-0.05,1.195c0.062,-0.402 0.077,-0.802 0.05,-1.195Z"/><path d="M199.473,155.09c2.674,0.498 4.701,2.846 4.701,5.663l-0.323,1.971l-1.249,2.11l-1.207,1.003l-1.621,0.7l-1.672,0.189l-1.376,-0.206l-1.634,-0.718l-0.124,-0.099l-0.297,-0.149c-2.843,-1.421 -3.998,-4.884 -2.576,-7.727c1.364,-2.728 4.607,-3.901 7.378,-2.737Zm1.518,0.773c0.372,0.231 0.718,0.506 1.029,0.817c-0.357,-0.358 -0.703,-0.621 -1.029,-0.817Z"/><path d="M223.313,158.759l0.434,0.462l0.71,1.281l0.489,2.567c0,3.179 -2.581,5.76 -5.76,5.76c-2.338,0 -4.353,-1.396 -5.255,-3.4l-0.597,-0.951c-1.421,-2.843 -0.267,-6.306 2.576,-7.728c2.646,-1.323 5.828,-0.415 7.403,2.009Zm-8.777,7.39c0.174,0.223 0.371,0.43 0.611,0.634l-0.611,-0.634Zm8.743,-7.427c-0.234,-0.329 -0.464,-0.541 -0.675,-0.72l0.675,0.72Z"/></svg>