<?xml version="1.0" encoding="UTF-8" standalone="no"?><!DOCTYPE svg PUBLIC "-//W3C//DTD SVG 1.1//EN" "http://www.w3.org/Graphics/SVG/1.1/DTD/svg11.dtd"><svg width="100%" height="100%" viewBox="0 0 246 246" version="1.1" xmlns="http://www.w3.org/2000/svg" xmlns:xlink="http://www.w3.org/1999/xlink" xml:space="preserve" xmlns:serif="http://www.serif.com/" style="fill-rule:evenodd;clip-rule:evenodd;stroke-linecap:square;stroke-linejoin:bevel;stroke-miterlimit:1.5;"><g><path d="M117.425,20.226c-49.785,5.642 -77.993,42.341 -74.297,70.232c3.697,27.891 44.021,35.283 47.381,59.478c3.361,24.194 -0.672,38.644 -0.672,38.644l50.069,3.696c0,0 -3.024,-25.875 5.377,-39.316c8.401,-13.441 43.012,-20.498 54.437,-54.101c9.953,-29.272 0.739,-88.041 -82.295,-78.633Z" style="fill:#e5f20d;"/><path d="M117.425,20.226c83.034,-9.408 92.248,49.361 82.295,78.633c-11.425,33.603 -46.036,40.66 -54.437,54.101c-8.401,13.441 -5.377,39.316 -5.377,39.316l-50.069,-3.696c0,-0 4.033,-14.45 0.672,-38.644c-3.36,-24.195 -43.684,-31.587 -47.381,-59.478c-3.696,-27.891 24.512,-64.59 74.297,-70.232Zm0.118,1.039c-5.789,0.838 -23.116,3.379 -40.294,14.638c-3.531,2.314 -15.247,10.035 -23.534,23.675c-1.169,1.925 -5.789,9.386 -7.401,19.196c-1.583,9.63 0.778,15.854 1.189,16.977c6.689,18.282 32.21,26.924 42.143,43.323c3.323,5.486 3.719,9.828 4.012,12.175c2.136,17.12 0.66,29.232 -0.353,34.748l43.697,3.381c-0.047,-0.722 -0.094,-1.564 -0.135,-2.542c-0.67,-15.958 2.07,-24.955 2.539,-26.548c2.175,-7.379 5.079,-10.52 5.829,-11.356c11.27,-12.557 42.174,-20.111 52.628,-51.258c5.87,-17.489 4.77,-45.822 -15.906,-62.813c-19.216,-15.792 -47.056,-15.141 -61.542,-13.894c-0.618,0.054 -2.643,0.274 -2.872,0.299l-0,-0.001Z"/><path d="M131.032,208.37c-0.481,-0.221 -1.603,-0.56 -4.138,-0.713c-10.466,-0.634 -31.143,2.51 -37.215,0.741c-0.785,-0.229 -1.291,-0.446 -2.415,-1.339c-4.119,-3.274 -3.506,-6.649 -1.37,-8.701c3.736,-3.591 13.704,-4.978 25.7,-3.434c12.894,1.659 24.211,3.159 27.257,1.043c0.406,-0.282 0.557,-0.606 0.625,-0.869c-1.186,-1.07 -6.492,-3.027 -19.849,-4.667c-10.1,-1.24 -18.045,-1.492 -21.417,-1.676c-4.55,-0.249 -7.555,-0.498 -8.07,-0.537l0.281,-3.679c11.392,0.855 12.028,0.551 21.071,1.311c5.892,0.496 24.144,2.257 29.689,5.838c2.503,1.616 2.21,3.4 1.912,4.461c-1.115,3.973 -5.867,4.498 -8.842,4.615c-6.267,0.248 -17.037,-1.316 -23.582,-2.114c-12.702,-1.547 -20.755,0.604 -22.382,2.792c-0.19,0.256 -0.44,0.641 0.287,1.546c0.644,0.803 1.732,1.535 1.844,1.585c1.969,0.87 10.125,0.363 11.576,0.28c11.66,-0.667 25.325,-2.223 30.403,-0.166c2.762,1.119 3.326,3.43 2.085,5.565c-3.464,5.961 -13.701,5.709 -21.698,5.454c-2.223,-0.071 -4.898,-0.176 -6.773,-0.075c-0.1,0.005 -0.581,0.031 -1.104,0.096c1.888,1.424 5.548,3.521 7.988,5.536c1.533,1.266 3.239,2.997 3.439,5.078c0.064,0.667 0.126,1.335 0.19,2.003l-3.97,0.378c-0.196,-1.935 -0.172,-1.94 -0.234,-2.131c-0.271,-0.844 -1.786,-2.099 -1.97,-2.251c-3.369,-2.791 -8.482,-5.18 -9.915,-7.528c-1.058,-1.733 -0.51,-4.041 2.745,-4.813c5.054,-1.198 17.502,1.086 24.39,-1.258c1.2,-0.409 1.866,-0.842 2.179,-1.06c0.649,-0.453 1.066,-0.961 1.283,-1.311Zm-27.286,7.595c-0.021,0.008 -0.042,0.016 -0.062,0.025c0.802,0.534 0.519,0.312 0.062,-0.025Z"/><path d="M107.787,186.518l5.995,-72.508l-30.388,-33.986l34.031,9.319l12.837,-12.882l1.918,16.719l27.134,-10.415l-32.89,40.016l-8.999,63.737" style="fill:none;stroke:#000;stroke-width:4px;"/></g></svg>